Coordinates
version=1
nRows=18
nColumns=22
inDegrees=yes

Units are S.I. units (second, meters, Newtons, ...)
If the header above contains a line with 'inDegrees', this indicates whether rotational values are in degrees (yes) or radians (no).

endheader
time	pelvis_tilt	pelvis_list	pelvis_rotation	pelvis_tx	pelvis_ty	pelvis_tz	hip_flexion_r	hip_adduction_r	hip_rotation_r	knee_angle_r	ankle_angle_r	subtalar_angle_r	hip_flexion_l	hip_adduction_l	hip_rotation_l	knee_angle_l	ankle_angle_l	subtalar_angle_l	lumbar_extension	lumbar_bending	lumbar_rotation
      4.01000000	     -1.69798898	      3.97196716	    162.57036147	      0.23313774	      1.00185640	     -0.28090475	     16.89851109	     -2.33549406	      4.43734181	    -43.74576569	     11.50925863	      2.14089642	      5.74642916	      5.79919858	     -5.92741321	    -21.90880843	     14.74096142	    -12.15633082	    -13.98842225	      1.12267259	      0.33399668
      4.02000000	     -1.55082428	      3.92724202	    163.45899002	      0.22918759	      1.00171968	     -0.28082635	     17.39828778	     -2.11359283	      5.21868887	    -42.10853229	     11.61582402	      1.96867307	      5.60664990	      5.86931247	     -5.15096041	    -21.77907449	     14.82878358	    -12.08062223	    -13.90459025	      1.17111796	      0.09844828
      4.03000000	     -1.40554668	      3.89108111	    164.34778178	      0.22526982	      1.00158176	     -0.28079078	     17.89684747	     -1.85962918	      5.97552942	    -40.50349974	     11.62744101	      1.87674614	      5.46372490	      5.92373454	     -4.36474435	    -21.65508791	     14.90739267	    -11.99858170	    -13.83211442	      1.21322318	     -0.11707243
      4.04000000	     -1.26652309	      3.87143097	    165.24661829	      0.22136666	      1.00145074	     -0.28077808	     18.38215941	     -1.57462062	      6.68190764	    -38.93123888	     11.57300511	      1.92515829	      5.31100526	      5.95634858	     -3.56177836	    -21.53842477	     14.98939458	    -11.91502412	    -13.77637456	      1.25958908	     -0.32620369
      4.05000000	     -1.13670123	      3.87075504	    166.16314286	      0.21746306	      1.00133524	     -0.28076061	     18.84813458	     -1.26555465	      7.31068421	    -37.39146121	     11.45414607	      2.14019802	      5.14262612	      5.96683042	     -2.73479815	    -21.42370806	     15.07651148	    -11.83067704	    -13.74031007	      1.31785138	     -0.53439070
      4.06000000	     -1.02292877	      3.88705345	    167.08651680	      0.21354974	      1.00124834	     -0.28074952	     19.28917574	     -0.93846476	      7.85082619	    -35.88466577	     11.28275820	      2.53498217	      4.94662520	      5.95702635	     -1.89704181	    -21.30078686	     15.16569112	    -11.74536412	    -13.72910496	      1.38211383	     -0.73464052
      4.07000000	     -0.92593247	      3.91429459	    168.00620515	      0.20961010	      1.00118888	     -0.28073041	     19.70679310	     -0.60137663	      8.30217199	    -34.41023520	     11.05009884	      3.06129849	      4.71986759	      5.93244844	     -1.06694169	    -21.16033890	     15.25547035	    -11.66068382	    -13.73923062	      1.45144120	     -0.91147197
      4.08000000	     -0.85915291	      3.94492669	    168.89924540	      0.20563700	      1.00117842	     -0.28075277	     20.09065830	     -0.25866636	      8.67798473	    -32.97158361	     10.83287162	      3.84233128	      4.43627067	      5.90149179	     -0.25478703	    -20.97828274	     15.33692359	    -11.56513192	    -13.78326819	      1.50556370	     -1.02578469
      4.09000000	     -0.79593631	      3.99070788	    169.79442793	      0.20164779	      1.00117889	     -0.28076377	     20.45970740	      0.09388044	      8.92063520	    -31.55130135	     10.48743087	      4.52449517	      4.14599743	      5.84476552	      0.54865545	    -20.79747354	     15.42733658	    -11.47437411	    -13.83737635	      1.57288602	     -1.14118631
      4.10000000	     -0.75191924	      4.03695343	    170.66812558	      0.19761438	      1.00121424	     -0.28076964	     20.80356375	      0.44250119	      9.06771458	    -30.15655977	     10.07017231	      5.29399220	      3.81416826	      5.78080009	      1.32275398	    -20.57684424	     15.51344986	    -11.37563247	    -13.90933844	      1.63644291	     -1.21480688
      4.11000000	     -0.72201538	      4.08147498	    171.51739781	      0.19353554	      1.00127960	     -0.28080706	     21.12592035	      0.78991173	      9.12474228	    -28.78512765	      9.55425120	      6.11353111	      3.45137390	      5.70703233	      2.05565212	    -20.32641406	     15.59195588	    -11.26983356	    -13.99274447	      1.68613031	     -1.26682371
      4.12000000	     -0.69722598	      4.14327017	    172.37660482	      0.18940349	      1.00134899	     -0.28081899	     21.42037106	      1.14486102	      9.07145049	    -27.42269036	      8.98859163	      6.86659201	      3.07876101	      5.60740846	      2.80853423	    -20.07818706	     15.68143275	    -11.16026203	    -14.07972320	      1.75637534	     -1.30446821
      4.13000000	     -0.68673551	      4.20247311	    173.22235408	      0.18518779	      1.00144828	     -0.28084824	     21.68075298	      1.49493868	      8.95685438	    -26.07210683	      8.33391389	      7.67310088	      2.67442076	      5.49814679	      3.52751135	    -19.80083200	     15.76298464	    -11.03968459	    -14.17095672	      1.81735409	     -1.33244746
      4.14000000	     -0.68067875	      4.26464121	    174.06894398	      0.18089460	      1.00154838	     -0.28087582	     21.91088091	      1.84462920	      8.79643700	    -24.72731996	      7.62621883	      8.46805368	      2.26115776	      5.37447465	      4.24065266	    -19.51875036	     15.84077058	    -10.91174514	    -14.25599625	      1.87848142	     -1.35648506
      4.15000000	     -0.68008662	      4.32442277	    174.92306572	      0.17651440	      1.00164238	     -0.28088575	     22.10294300	      2.18574246	      8.62160755	    -23.37998644	      6.89814195	      9.27906198	      1.83976917	      5.24239886	      4.94701224	    -19.23495259	     15.91352392	    -10.77632157	    -14.33480325	      1.93834477	     -1.37971843
      4.16000000	     -0.68073922	      4.37524254	    175.78012367	      0.17203791	      1.00171451	     -0.28090106	     22.25895503	      2.51508921	      8.47266569	    -22.03058135	      6.18741334	     10.10839247	      1.41629048	      5.10697020	      5.64086593	    -18.95111864	     15.97795748	    -10.63597699	    -14.39911838	      1.98408860	     -1.41113984
      4.17000000	     -0.67729035	      4.41787180	    176.65692373	      0.16748387	      1.00173644	     -0.28087864	     22.38064369	      2.82593199	      8.37459430	    -20.67853452	      5.54252889	     10.90585064	      1.00934153	      4.97142310	      6.34931325	    -18.69197796	     16.04452180	    -10.49470458	    -14.44764303	      2.02425419	     -1.45060937
      4.18000000	     -0.67070021	      4.43928717	    177.53967816	      0.16283158	      1.00170590	     -0.28084311	     22.46935495	      3.10821516	      8.36572248	    -19.33673517	      4.98138635	     11.67631300	      0.60956147	      4.84797546	      7.04906497	    -18.44196072	     16.10489167	    -10.34768571	    -14.47852505	      2.03906177	     -1.50434922
